<?xml version="1.0" encoding="iso-8859-1"?>
<!-- Generator: Adobe Illustrator 18.0.0, SVG Export Plug-In . SVG Version: 6.00 Build 0)  -->
<!DOCTYPE svg PUBLIC "-//W3C//DTD SVG 1.1//EN" "http://www.w3.org/Graphics/SVG/1.1/DTD/svg11.dtd">
<svg version="1.1" id="Capa_1" xmlns="http://www.w3.org/2000/svg" xmlns:xlink="http://www.w3.org/1999/xlink" x="0px" y="0px"
	 viewBox="0 0 455.396 455.396" style="enable-background:new 0 0 455.396 455.396;" xml:space="preserve">
<g id="XMLID_1502_">
	<path id="XMLID_1505_" d="M254.163,261.131c2.416-4.958,0.358-10.926-4.595-13.353c-4.95-2.426-10.938-0.376-13.375,4.572
		c-0.133,0.269-13.013,26.026-35.505,37.811c0.106-1.873,0.385-4.071,0.797-6.167c1.273-1.861-1.917,7.629,47.71-151.305
		c0.766-2.472,7.147-24.542-4.233-37.956c-17.931-21.132-50.198-5.486-69.259,12.437c-0.93-4.408-2.71-8.75-5.839-12.437
		c-6.067-7.15-20.123-17.086-46.201-3.486c-8.931,4.138-16.633,9.875-23.091,15.953c-0.928-4.418-2.71-8.771-5.845-12.467
		c-6.067-7.15-20.125-17.088-46.2-3.486C17.969,105.407,1.693,138.24,1.013,139.634c-2.42,4.965-0.356,10.951,4.608,13.371
		c4.962,2.419,10.949,0.357,13.37-4.608c0.131-0.268,12.851-25.95,35.496-37.795c-0.398,7.007-6.181,24.235-49.715,164.792
		c-0.939,3.035-0.381,6.334,1.504,8.891s4.872,4.065,8.049,4.065h28.676c4.375,0,8.241-2.844,9.546-7.02
		c37.661-120.629,39.372-126.967,41.582-132.934c3.667-9.897,12.851-25.95,35.496-37.795c-0.141,2.474-0.579,5.518-1.233,8.14
		L79.911,275.393c-0.939,3.035-0.381,6.334,1.504,8.891s4.872,4.065,8.049,4.065h28.676c4.375,0,8.241-2.844,9.546-7.02
		c0,0,41.517-132.871,41.533-132.916c8.411-23.248,17.744-30.415,35.505-37.811c-0.106,1.868-6.837,23.59-48.508,157.472
		c-0.766,2.472-7.147,24.542,4.233,37.956c11.996,14.137,29.876,12.021,46.284,3.439
		C237.234,295.289,253.483,262.524,254.163,261.131z M79.862,126.753L35.648,268.35h-7.76l44.548-143.942
		c0.046-0.146,0.087-0.293,0.126-0.441c1.088-4.186,2.678-12.051,1.669-19.342c3.11,0.534,4.533,2.21,5.246,3.05
		C82.437,111.163,81.592,121.027,79.862,126.753z M154.999,126.753L110.786,268.35h-7.76c0,0,44.635-144.236,44.674-144.384
		c1.088-4.186,2.678-12.051,1.669-19.342c3.11,0.534,4.533,2.209,5.246,3.05C157.575,111.163,156.73,121.027,154.999,126.753z
		 M180.949,296.137c-6.767-1.161-7.619-7.448-7.079-14.144c0.236-0.604,48.61-156.967,48.802-157.586
		c0.046-0.146,0.087-0.293,0.126-0.441c1.088-4.185,2.673-12.048,1.665-19.339c6.766,1.161,8.341,7.544,7.078,14.169
		C229.296,130.558,179.126,282.951,180.949,296.137z"/>
	<path id="XMLID_1510_" d="M416.969,138.259c-15.705-5.104-32.826-2.083-48.24,8.493c-52.973,0.004-59.349-0.005-64.859,0.067
		c-15.864,0.931-28.686,14.593-38.239,27.21c-10.33,13.639-18.229,27.765-18.56,28.359c-2.687,4.824-0.954,10.912,3.869,13.6
		c4.824,2.689,10.913,0.957,13.603-3.866c0.067-0.122,6.893-12.314,15.721-24.267c14.194-19.216,21.016-20.951,21.852-21.092
		c4.141-0.012,4.512,2.731,4.642,3.317c1.249,5.669,0.106,6.909-53.378,180.833h-38.542c-5.523,0-10,4.477-10,10s4.477,10,10,10
		c14.459,0,109.583,0,123.616,0c5.522,0,10-4.477,10-10s-4.478-10-10-10h-31.3l30.927-99.047
		c6.641,15.06,17.873,25.766,32.093,30.387c16.583,5.39,33.798,1.495,48.444-8.627c14.635-10.114,26.054-26.019,32.151-44.783v0
		C463.433,189.872,449.433,148.808,416.969,138.259z M339.076,184.375c-2.065,4.918-2.945,9.875-52.875,166.54h-11.886
		l51.489-166.369c0.604-1.791,2.877-9.456,0.875-17.794h22.073C344.964,172.14,341.706,178.053,339.076,184.375z M431.747,222.663
		L431.747,222.663c-4.75,14.619-13.451,26.875-24.501,34.511c-10.217,7.062-21.189,9.214-30.892,6.06
		c-9.704-3.154-17.314-11.344-21.429-23.063c-4.449-12.673-4.283-27.703,0.468-42.321c8.161-25.117,31.828-48.229,55.394-40.57
		C431.711,164.08,441.18,193.64,431.747,222.663z"/>
	<path id="XMLID_1514_" d="M406.84,169.427c-18.105-5.885-39.141,6.77-46.682,29.971c-7.316,22.514,1.721,45.702,20.144,51.688
		c18.425,5.988,39.365-7.462,46.682-29.971v0C434.585,197.718,424.798,175.262,406.84,169.427z M407.962,214.933L407.962,214.933
		c-3.841,11.821-13.674,19.668-21.479,17.133c-7.801-2.535-11.146-14.665-7.304-26.486c4.029-12.404,14.169-19.505,21.479-17.132
		C408.018,190.839,411.967,202.61,407.962,214.933z"/>
</g>
<g>
</g>
<g>
</g>
<g>
</g>
<g>
</g>
<g>
</g>
<g>
</g>
<g>
</g>
<g>
</g>
<g>
</g>
<g>
</g>
<g>
</g>
<g>
</g>
<g>
</g>
<g>
</g>
<g>
</g>
</svg>
